<svg viewBox="0 0 24 24" xmlns="http://www.w3.org/2000/svg"><path clip-rule="evenodd" d="M2 3.304C2 2.584 2.584 2 3.304 2h17.392C21.416 2 22 2.584 22 3.304v17.392c0 .72-.584 1.304-1.304 1.304H3.304C2.584 22 2 21.416 2 20.696V3.304z" data-fill="1" data-stroke="1" fill-rule="evenodd" stroke-linecap="round" stroke-linejoin="round" stroke="#241e12" fill="rgba(0, 0, 0, 0)" stroke-width="1.2px"></path><path clip-rule="evenodd" d="M9.435 13.61a.556.556 0 0 1-.512 0 .463.463 0 0 1-.256-.405V7.318a.463.463 0 0 1 .256-.405.556.556 0 0 1 .512 0l5.64 2.943a.449.449 0 0 1 0 .813l-5.64 2.942z" data-fill="2" data-stroke="2" fill-rule="evenodd" stroke-linecap="round" stroke-linejoin="round" stroke="#241e12" fill="rgba(0, 0, 0, 0)" stroke-width="1.2px"></path><path d="M4.667 18h14.666M15.333 16.667v2.666" data-stroke="1" stroke-linecap="round" stroke-linejoin="round" stroke="#241e12" fill="rgba(0, 0, 0, 0)" stroke-width="1.2px"></path></svg>